<svg width="400" height="400" viewBox="0 0 400 400" fill="none" xmlns="http://www.w3.org/2000/svg">
<path d="M371.152 143.544C361.098 119.871 343.734 100.035 321.6 86.9361C284.472 64.8001 214.024 34.6561 140.4 65.3921C32.8 110.304 11.936 285.248 16.632 306.664C21.328 328.08 215.6 398.568 261.552 388.128C307.504 377.688 378.528 297.264 385.84 261.224C391.352 234.048 388.848 185.488 371.152 143.544Z" fill="#CFD8DC"/>
<path opacity="0.7" d="M371.152 143.544C361.098 119.871 343.734 100.035 321.6 86.9361C284.472 64.8001 214.024 34.6561 140.4 65.3921C32.8 110.304 11.936 285.248 16.632 306.664C21.328 328.08 215.6 398.568 261.552 388.128C307.504 377.688 378.528 297.264 385.84 261.224C391.352 234.048 388.848 185.488 371.152 143.544Z" fill="white"/>
<path d="M341.6 196C334.4 196.002 327.362 193.868 321.375 189.87C315.388 185.871 310.721 180.187 307.965 173.535C305.209 166.884 304.487 159.565 305.89 152.504C307.294 145.442 310.76 138.956 315.85 133.864C320.941 128.773 327.427 125.305 334.488 123.9C341.549 122.495 348.868 123.215 355.52 125.97C362.171 128.725 367.857 133.391 371.857 139.377C375.857 145.363 377.992 152.401 377.992 159.6C377.981 169.249 374.144 178.501 367.322 185.324C360.499 192.148 351.249 195.988 341.6 196ZM341.6 124C334.559 123.999 327.675 126.085 321.819 129.996C315.964 133.907 311.4 139.466 308.704 145.971C306.008 152.476 305.302 159.634 306.675 166.541C308.048 173.447 311.438 179.791 316.416 184.77C321.395 189.75 327.738 193.141 334.644 194.516C341.55 195.89 348.708 195.185 355.214 192.491C361.719 189.797 367.28 185.234 371.192 179.379C375.104 173.525 377.192 166.642 377.192 159.6C377.181 150.163 373.428 141.116 366.756 134.442C360.084 127.768 351.037 124.013 341.6 124Z" fill="#263238"/>
<path d="M341.6 189.344C335.712 189.346 329.956 187.601 325.06 184.331C320.163 181.061 316.347 176.413 314.092 170.973C311.838 165.534 311.247 159.549 312.395 153.774C313.543 147.999 316.377 142.694 320.54 138.53C324.703 134.366 330.007 131.53 335.782 130.381C341.556 129.231 347.542 129.82 352.982 132.073C358.422 134.326 363.071 138.142 366.343 143.037C369.614 147.933 371.36 153.688 371.36 159.576C371.352 167.467 368.214 175.033 362.635 180.613C357.056 186.194 349.491 189.334 341.6 189.344ZM341.6 130.608C335.87 130.607 330.269 132.304 325.504 135.486C320.739 138.668 317.025 143.192 314.831 148.485C312.638 153.778 312.063 159.603 313.18 165.223C314.296 170.842 317.055 176.005 321.106 180.057C325.157 184.109 330.318 186.869 335.938 187.987C341.557 189.105 347.382 188.532 352.676 186.34C357.969 184.148 362.494 180.435 365.677 175.671C368.861 170.907 370.56 165.306 370.56 159.576C370.552 151.897 367.498 144.535 362.069 139.105C356.64 133.674 349.279 130.619 341.6 130.608Z" fill="#263238"/>
<path d="M369.656 253.392H313.656C313.55 253.392 313.448 253.35 313.373 253.275C313.298 253.2 313.256 253.098 313.256 252.992V247.784C313.256 247.678 313.298 247.576 313.373 247.501C313.448 247.426 313.55 247.384 313.656 247.384H369.656C369.762 247.384 369.864 247.426 369.939 247.501C370.014 247.576 370.056 247.678 370.056 247.784V252.992C370.054 253.097 370.011 253.198 369.937 253.273C369.862 253.347 369.761 253.39 369.656 253.392ZM314.064 252.592H369.264V248.184H314.064V252.592Z" fill="#263238"/>
<path d="M361.968 273.8H321.344C321.255 273.801 321.168 273.771 321.099 273.716C321.029 273.66 320.98 273.583 320.96 273.496L315.88 253.144C315.866 253.085 315.865 253.024 315.877 252.964C315.89 252.905 315.915 252.849 315.952 252.8C315.99 252.752 316.039 252.714 316.095 252.688C316.15 252.661 316.211 252.648 316.272 252.648H367.048C367.109 252.648 367.17 252.661 367.225 252.688C367.281 252.714 367.33 252.752 367.368 252.8C367.405 252.849 367.43 252.905 367.443 252.964C367.455 253.024 367.454 253.085 367.44 253.144L362.4 273.496C362.376 273.59 362.319 273.672 362.24 273.728C362.161 273.783 362.064 273.809 361.968 273.8ZM321.656 273H361.656L366.536 253.448H316.8L321.656 273Z" fill="#263238"/>
<path d="M313.664 248.184C313.578 248.182 313.494 248.154 313.424 248.104C313.339 248.04 313.283 247.946 313.268 247.841C313.253 247.736 313.28 247.629 313.344 247.544L340.688 211.28C340.725 211.23 340.773 211.189 340.829 211.161C340.884 211.134 340.946 211.119 341.008 211.12C341.07 211.115 341.132 211.126 341.188 211.153C341.245 211.18 341.293 211.221 341.328 211.272L369.968 247.536C370.023 247.62 370.046 247.721 370.03 247.82C370.014 247.919 369.962 248.008 369.884 248.071C369.805 248.133 369.706 248.164 369.606 248.157C369.506 248.149 369.413 248.105 369.344 248.032L341.016 212.176L313.984 248C313.949 248.054 313.902 248.098 313.846 248.13C313.79 248.162 313.728 248.181 313.664 248.184Z" fill="#263238"/>
<path d="M341.008 247.856C340.902 247.856 340.8 247.814 340.725 247.739C340.65 247.664 340.608 247.562 340.608 247.456V211.52C340.608 211.414 340.65 211.312 340.725 211.237C340.8 211.162 340.902 211.12 341.008 211.12C341.114 211.12 341.216 211.162 341.291 211.237C341.366 211.312 341.408 211.414 341.408 211.52V247.456C341.408 247.562 341.366 247.664 341.291 247.739C341.216 247.814 341.114 247.856 341.008 247.856Z" fill="#263238"/>
<path d="M341.736 204.664H338.448C338.342 204.664 338.24 204.622 338.165 204.547C338.09 204.472 338.048 204.37 338.048 204.264V195.576C338.048 195.47 338.09 195.368 338.165 195.293C338.24 195.218 338.342 195.176 338.448 195.176H341.736C341.842 195.176 341.944 195.218 342.019 195.293C342.094 195.368 342.136 195.47 342.136 195.576V204.264C342.136 204.37 342.094 204.472 342.019 204.547C341.944 204.622 341.842 204.664 341.736 204.664ZM338.848 203.864H341.336V196H338.848V203.864Z" fill="#263238"/>
<path d="M341.208 213.336C340.328 213.336 339.664 212.168 339.664 210.632V204.488C339.664 204.382 339.706 204.28 339.781 204.205C339.856 204.13 339.958 204.088 340.064 204.088C340.17 204.088 340.272 204.13 340.347 204.205C340.422 204.28 340.464 204.382 340.464 204.488V210.632C340.464 211.776 340.912 212.536 341.208 212.536C341.504 212.536 341.952 211.776 341.952 210.632V207.344C341.952 207.238 341.994 207.136 342.069 207.061C342.144 206.986 342.246 206.944 342.352 206.944C342.458 206.944 342.56 206.986 342.635 207.061C342.71 207.136 342.752 207.238 342.752 207.344V210.632C342.752 212.168 342.088 213.336 341.208 213.336Z" fill="#263238"/>
<path d="M341.6 160C341.494 160 341.392 159.958 341.317 159.883C341.242 159.808 341.2 159.706 341.2 159.6V143.472C341.2 143.366 341.242 143.264 341.317 143.189C341.392 143.114 341.494 143.072 341.6 143.072C341.706 143.072 341.808 143.114 341.883 143.189C341.958 143.264 342 143.366 342 143.472V159.576C342.003 159.631 341.995 159.685 341.977 159.736C341.958 159.788 341.929 159.835 341.892 159.875C341.854 159.914 341.809 159.946 341.759 159.967C341.709 159.989 341.655 160 341.6 160Z" fill="#263238"/>
<path d="M341.6 123.696C340.963 123.696 340.353 123.443 339.903 122.993C339.453 122.543 339.2 121.933 339.2 121.296V117.552C339.2 116.916 339.453 116.305 339.903 115.855C340.353 115.405 340.963 115.152 341.6 115.152C342.236 115.152 342.847 115.405 343.297 115.855C343.747 116.305 344 116.916 344 117.552V121.296C344 121.933 343.747 122.543 343.297 122.993C342.847 123.443 342.236 123.696 341.6 123.696ZM341.6 115.92C341.176 115.92 340.769 116.089 340.469 116.389C340.169 116.689 340 117.096 340 117.52V121.264C340 121.688 340.169 122.095 340.469 122.395C340.769 122.696 341.176 122.864 341.6 122.864C342.024 122.864 342.431 122.696 342.731 122.395C343.031 122.095 343.2 121.688 343.2 121.264V117.52C343.2 117.096 343.031 116.689 342.731 116.389C342.431 116.089 342.024 115.92 341.6 115.92Z" fill="#263238"/>
<path d="M341.6 112.8C340.963 112.8 340.353 112.547 339.903 112.097C339.453 111.647 339.2 111.037 339.2 110.4V106.648C339.2 106.012 339.453 105.401 339.903 104.951C340.353 104.501 340.963 104.248 341.6 104.248C342.236 104.248 342.847 104.501 343.297 104.951C343.747 105.401 344 106.012 344 106.648V110.4C344 111.037 343.747 111.647 343.297 112.097C342.847 112.547 342.236 112.8 341.6 112.8ZM341.6 105.016C341.176 105.016 340.769 105.185 340.469 105.485C340.169 105.785 340 106.192 340 106.616V110.368C340 110.792 340.169 111.199 340.469 111.499C340.769 111.799 341.176 111.968 341.6 111.968C342.024 111.968 342.431 111.799 342.731 111.499C343.031 111.199 343.2 110.792 343.2 110.368V106.616C343.205 106.403 343.168 106.19 343.09 105.991C343.012 105.793 342.895 105.612 342.746 105.459C342.597 105.306 342.418 105.184 342.222 105.102C342.025 105.019 341.813 104.976 341.6 104.976V105.016Z" fill="#263238"/>
<path d="M341.6 118.176C341.238 118.176 340.892 118.033 340.635 117.778C340.379 117.523 340.234 117.178 340.232 116.816V110.96C340.218 110.772 340.242 110.583 340.304 110.405C340.366 110.227 340.464 110.064 340.592 109.926C340.72 109.788 340.876 109.677 341.048 109.602C341.221 109.526 341.407 109.488 341.596 109.488C341.784 109.488 341.971 109.526 342.143 109.602C342.316 109.677 342.471 109.788 342.6 109.926C342.728 110.064 342.826 110.227 342.888 110.405C342.95 110.583 342.974 110.772 342.96 110.96V116.8C342.962 116.98 342.928 117.159 342.861 117.325C342.794 117.492 342.694 117.644 342.567 117.772C342.441 117.9 342.29 118.002 342.124 118.071C341.958 118.14 341.78 118.176 341.6 118.176ZM341.6 110.392C341.449 110.392 341.305 110.452 341.198 110.558C341.092 110.665 341.032 110.809 341.032 110.96V116.8C341.034 116.949 341.095 117.092 341.201 117.197C341.307 117.301 341.451 117.36 341.6 117.36C341.748 117.36 341.891 117.301 341.996 117.196C342.101 117.091 342.16 116.949 342.16 116.8V110.96C342.16 110.812 342.101 110.669 341.996 110.564C341.891 110.459 341.748 110.4 341.6 110.4V110.392Z" fill="#263238"/>
<path d="M341.6 101.816C340.963 101.816 340.353 101.563 339.903 101.113C339.453 100.663 339.2 100.053 339.2 99.4162V95.6722C339.2 95.0357 339.453 94.4253 339.903 93.9752C340.353 93.5251 340.963 93.2722 341.6 93.2722C342.236 93.2722 342.847 93.5251 343.297 93.9752C343.747 94.4253 344 95.0357 344 95.6722V99.4162C344 100.053 343.747 100.663 343.297 101.113C342.847 101.563 342.236 101.816 341.6 101.816ZM341.6 94.0402C341.176 94.0402 340.769 94.2088 340.469 94.5089C340.169 94.8089 340 95.2159 340 95.6402V99.3842C340 99.8086 340.169 100.216 340.469 100.516C340.769 100.816 341.176 100.984 341.6 100.984C342.024 100.984 342.431 100.816 342.731 100.516C343.031 100.216 343.2 99.8086 343.2 99.3842V95.6402C343.2 95.2159 343.031 94.8089 342.731 94.5089C342.431 94.2088 342.024 94.0402 341.6 94.0402Z" fill="#263238"/>
<path d="M341.6 107.2C341.238 107.2 340.892 107.057 340.635 106.802C340.379 106.547 340.234 106.201 340.232 105.84V100C340.258 99.6563 340.413 99.3352 340.666 99.101C340.919 98.8667 341.251 98.7366 341.596 98.7366C341.941 98.7366 342.273 98.8667 342.526 99.101C342.778 99.3352 342.934 99.6563 342.96 100V105.856C342.956 106.214 342.811 106.556 342.556 106.807C342.301 107.059 341.958 107.2 341.6 107.2ZM341.6 99.424C341.526 99.423 341.452 99.4367 341.383 99.4643C341.314 99.492 341.252 99.5331 341.199 99.5852C341.146 99.6373 341.104 99.6994 341.075 99.7679C341.047 99.8363 341.032 99.9098 341.032 99.984V105.84C341.032 105.914 341.047 105.988 341.075 106.056C341.104 106.125 341.146 106.187 341.199 106.239C341.252 106.291 341.314 106.332 341.383 106.36C341.452 106.387 341.526 106.401 341.6 106.4C341.748 106.4 341.891 106.341 341.996 106.236C342.101 106.131 342.16 105.989 342.16 105.84V100C342.156 99.8543 342.095 99.7159 341.99 99.6144C341.886 99.5128 341.746 99.456 341.6 99.456V99.424Z" fill="#263238"/>
<path d="M341.6 90.8801C340.963 90.8801 340.353 90.6273 339.903 90.1772C339.453 89.7271 339.2 89.1166 339.2 88.4801V84.7281C339.2 84.0916 339.453 83.4812 339.903 83.0311C340.353 82.581 340.963 82.3281 341.6 82.3281C342.236 82.3281 342.847 82.581 343.297 83.0311C343.747 83.4812 344 84.0916 344 84.7281V88.4801C344 89.1166 343.747 89.7271 343.297 90.1772C342.847 90.6273 342.236 90.8801 341.6 90.8801ZM341.6 83.0961C341.176 83.0961 340.769 83.2647 340.469 83.5648C340.169 83.8648 340 84.2718 340 84.6961V88.4481C340 88.8725 340.169 89.2794 340.469 89.5795C340.769 89.8796 341.176 90.0481 341.6 90.0481C342.024 90.0481 342.431 89.8796 342.731 89.5795C343.031 89.2794 343.2 88.8725 343.2 88.4481V84.6961C343.2 84.2718 343.031 83.8648 342.731 83.5648C342.431 83.2647 342.024 83.0961 341.6 83.0961Z" fill="#263238"/>
<path d="M341.6 96.2962C341.238 96.2962 340.892 96.1532 340.635 95.8984C340.379 95.6435 340.234 95.2976 340.232 94.9362V89.0802C340.218 88.8923 340.242 88.7034 340.304 88.5255C340.366 88.3475 340.464 88.1843 340.592 88.046C340.72 87.9078 340.876 87.7975 341.048 87.722C341.221 87.6466 341.407 87.6077 341.596 87.6077C341.784 87.6077 341.971 87.6466 342.143 87.722C342.316 87.7975 342.471 87.9078 342.6 88.046C342.728 88.1843 342.826 88.3475 342.888 88.5255C342.95 88.7034 342.974 88.8923 342.96 89.0802V94.9362C342.96 95.1148 342.925 95.2917 342.856 95.4567C342.788 95.6217 342.688 95.7716 342.562 95.8979C342.435 96.0242 342.285 96.1243 342.12 96.1927C341.955 96.261 341.778 96.2962 341.6 96.2962ZM341.6 88.5122C341.449 88.5122 341.305 88.572 341.198 88.6786C341.092 88.7851 341.032 88.9296 341.032 89.0802V94.9362C341.034 95.0855 341.095 95.2279 341.201 95.3327C341.307 95.4375 341.451 95.4962 341.6 95.4962C341.748 95.4962 341.891 95.4372 341.996 95.3322C342.101 95.2272 342.16 95.0847 342.16 94.9362V89.0802C342.161 89.006 342.147 88.9323 342.12 88.8634C342.092 88.7946 342.051 88.7319 341.999 88.679C341.947 88.6262 341.885 88.5842 341.816 88.5556C341.748 88.5269 341.674 88.5122 341.6 88.5122Z" fill="#263238"/>
<g opacity="0.3">
<path d="M205.784 64.9841L204.904 63.4481C205.874 62.2698 206.907 61.1454 208 60.0801C226.488 51.6401 244.8 57.4801 251.272 60.0801C251.944 60.7281 252.584 61.4401 253.224 62.1521L252.208 64.1761C252 64.0881 227.888 52.3521 205.784 64.9841Z" fill="black"/>
<path d="M194.936 81.816C195.708 79.4729 196.614 77.1758 197.648 74.936C206.296 68.2 216.688 64.312 227.304 64.312C241.376 64.312 255.168 71.584 262 75.8C262.8 77.552 263.504 79.384 264.152 81.264C261.872 79.664 244.416 67.664 227.304 67.664C215.408 67.696 203.792 72.952 194.936 81.816Z" fill="black"/>
<path d="M259.736 128.224C259.824 128.04 268.32 109.824 257.336 92.5841C254.653 88.2492 251.083 84.5307 246.861 81.6726C242.64 78.8145 237.861 76.8814 232.84 76.0001C223.384 74.2801 215.288 76.3441 211.752 78.9921C206.112 83.2241 201.992 88.5921 198.352 93.3041C196.251 96.2298 193.898 98.9656 191.32 101.48C191.408 99.6721 191.56 97.8961 191.768 96.1361C193.016 94.6801 194.296 93.0321 195.672 91.2481C199.44 86.3441 203.72 80.7921 209.728 76.2881C213.96 73.0881 222.936 70.7681 233.44 72.6721C238.929 73.6351 244.152 75.749 248.765 78.8748C253.379 82.0006 257.279 86.0675 260.208 90.8081C272.168 109.608 263.176 128.912 262.792 129.72L259.736 128.224Z" fill="black"/>
<path d="M195.336 105.536C196.738 103.686 198.026 101.752 199.192 99.7441C204.104 91.7041 210.216 81.7041 228.136 81.7041C236.488 81.7041 243.144 84.5201 247.928 90.0801C254.744 97.9921 255.872 109.488 254.656 117.608C253.328 126.408 257.552 132.416 261.408 135.944C260.904 136.984 260.368 137.976 259.808 138.96C255.192 134.96 249.704 127.76 251.304 117.104C252.408 109.728 251.432 99.3281 245.36 92.3041C241.248 87.5041 235.448 85.1041 228.128 85.1041C212.128 85.1041 207.008 93.4481 202.072 101.528C200.835 103.656 199.467 105.705 197.976 107.664C196.245 109.906 194.089 111.784 191.632 113.192C191.504 111.936 191.4 110.68 191.328 109.4C192.839 108.307 194.188 107.006 195.336 105.536Z" fill="black"/>
<path d="M207.808 105.792C208.515 104.324 209.3 102.896 210.16 101.512C213.36 96.712 220.88 85.448 236.232 91.776C248.32 96.752 247.16 109.424 246.136 120.576C245.84 123.776 245.56 126.872 245.56 129.752C245.56 137.752 251.272 143.152 255.16 145.936C254.44 146.84 253.704 147.712 252.936 148.536C248.48 145.336 242.176 139.12 242.176 129.752C242.176 126.712 242.48 123.44 242.768 120.264C243.776 109.28 244.72 98.904 234.944 94.872C222.144 89.6 216.408 98.216 212.976 103.36C212.19 104.636 211.471 105.952 210.824 107.304C208.048 112.76 203.624 121.4 194.464 127.184C194.112 126.056 193.808 124.896 193.512 123.728C201.272 118.504 205.136 111.048 207.808 105.792Z" fill="black"/>
<path d="M210.4 120.304C212.304 118.392 213.256 116.064 214.36 113.36C215.856 109.68 217.56 105.512 222.152 101.944C225.144 99.6161 228.472 99.2321 231.52 100.872C236.4 103.496 239.52 110.832 238.952 118.312C238.232 127.72 217.408 144.32 208.664 150.904C207.864 150.144 207.064 149.304 206.264 148.504C216.424 140.856 235.008 125.448 235.576 118.104C236.048 111.992 233.608 105.888 229.912 103.896C228.056 102.904 226.144 103.16 224.216 104.656C220.344 107.672 218.888 111.24 217.48 114.688C216.344 117.472 215.168 120.352 212.776 122.736C209.624 125.896 202.432 131.192 197.36 134.808C196.88 133.768 196.416 132.712 195.992 131.608C200.92 128.04 207.528 123.152 210.4 120.304Z" fill="black"/>
<path d="M228.992 110.832C228.264 122.464 209.832 139.304 203.304 144.92C202.64 144.016 201.992 143.088 201.368 142.128C209.68 134.928 225.04 119.88 225.616 110.624L228.992 110.832Z" fill="black"/>
<path d="M224.416 144.04C226.904 141.144 228.88 138.856 232.272 138.856C237.456 138.856 245.392 147.6 249.184 152.16C248.304 152.896 247.408 153.576 246.496 154.216C241.824 148.616 235.296 142.216 232.272 142.216C230.504 142.216 229.304 143.512 226.976 146.216C223.83 150.085 220.084 153.423 215.88 156.104C214.778 155.499 213.709 154.834 212.68 154.112C217.172 151.497 221.149 148.084 224.416 144.04Z" fill="black"/>
<path d="M221.72 158.624C224.12 154.984 228.168 149.56 231.04 148.848C234.48 148 237.504 153.32 239.432 157.944C238.363 158.346 237.27 158.683 236.16 158.952C234.56 155.328 232.696 152.304 231.856 152.128C230.656 152.424 227.856 155.704 225.28 159.424C224.077 159.237 222.887 158.97 221.72 158.624Z" fill="black"/>
</g>
<path d="M99.842 110.99L40.9631 138.545L49.7155 157.247L108.594 129.691L99.842 110.99Z" fill="#263238"/>
<path d="M49.712 157.656C49.667 157.664 49.6209 157.664 49.576 157.656C49.475 157.619 49.3921 157.544 49.344 157.448L40.6 138.72C40.5772 138.673 40.5641 138.622 40.5614 138.569C40.5588 138.517 40.5666 138.465 40.5845 138.416C40.6024 138.366 40.63 138.321 40.6656 138.283C40.7013 138.244 40.7442 138.214 40.792 138.192L99.672 110.64C99.7191 110.617 99.7704 110.604 99.8227 110.602C99.875 110.599 99.9273 110.607 99.9765 110.625C100.026 110.643 100.071 110.67 100.109 110.706C100.148 110.741 100.178 110.784 100.2 110.832L108.952 129.536C108.992 129.634 108.992 129.743 108.952 129.84C108.912 129.937 108.838 130.017 108.744 130.064L49.88 157.6C49.8284 157.63 49.7712 157.649 49.712 157.656ZM41.488 138.744L49.904 156.728L108.056 129.528L99.648 111.552L41.488 138.744Z" fill="#263238"/>
<path d="M135.375 97.3586L100.994 113.449L107.444 127.231L141.825 111.14L135.375 97.3586Z" fill="white"/>
<path d="M107.44 127.64C107.395 127.648 107.349 127.648 107.304 127.64C107.254 127.624 107.208 127.597 107.169 127.561C107.13 127.525 107.1 127.481 107.08 127.432L100.632 113.6C100.609 113.552 100.596 113.5 100.593 113.448C100.59 113.395 100.598 113.342 100.616 113.292C100.634 113.242 100.661 113.196 100.697 113.157C100.733 113.118 100.776 113.086 100.824 113.064L135.224 96.9761C135.321 96.936 135.431 96.936 135.528 96.9761C135.578 96.9917 135.625 97.0175 135.665 97.0519C135.705 97.0863 135.737 97.1286 135.76 97.1761L142.208 110.96C142.231 111.007 142.244 111.058 142.247 111.111C142.249 111.163 142.241 111.215 142.223 111.265C142.206 111.314 142.178 111.359 142.142 111.397C142.107 111.436 142.064 111.467 142.016 111.488L107.616 127.584C107.562 127.616 107.502 127.635 107.44 127.64ZM101.52 113.656L107.632 126.712L141.288 110.96L135.2 97.904L101.52 113.656Z" fill="#263238"/>
<path d="M106.152 124.024L140.528 107.928L138.808 104.456L104.424 120.552L106.152 124.024Z" fill="#263238"/>
<path d="M106.152 124.424C106.077 124.423 106.004 124.402 105.941 124.363C105.877 124.323 105.826 124.267 105.792 124.2L104.072 120.728C104.048 120.681 104.033 120.628 104.029 120.575C104.025 120.522 104.032 120.468 104.049 120.417C104.066 120.367 104.093 120.32 104.129 120.28C104.164 120.24 104.208 120.207 104.256 120.184L138.656 104.096C138.751 104.054 138.858 104.049 138.956 104.084C139.055 104.118 139.136 104.188 139.184 104.28L140.904 107.752C140.929 107.8 140.943 107.852 140.947 107.905C140.951 107.959 140.944 108.012 140.927 108.063C140.91 108.114 140.883 108.161 140.847 108.201C140.812 108.241 140.768 108.273 140.72 108.296L106.32 124.384C106.267 124.409 106.21 124.422 106.152 124.424ZM104.968 120.736L106.336 123.496L140 107.744L138.632 104.984L104.968 120.736Z" fill="#263238"/>
<path d="M178.056 28.936C188.341 28.936 198.394 31.9858 206.946 37.6996C215.497 43.4134 222.162 51.5347 226.098 61.0365C230.033 70.5383 231.063 80.9937 229.057 91.0807C227.05 101.168 222.098 110.433 214.825 117.706C207.553 124.978 198.288 129.93 188.201 131.937C178.114 133.943 167.658 132.914 158.156 128.978C148.655 125.042 140.533 118.377 134.819 109.826C129.106 101.274 126.056 91.2207 126.056 80.936C126.056 67.1448 131.534 53.9184 141.286 44.1665C151.038 34.4146 164.265 28.936 178.056 28.936ZM178.056 121.144C186.007 121.144 193.779 118.786 200.39 114.369C207.001 109.952 212.153 103.674 215.196 96.3279C218.238 88.9823 219.035 80.8994 217.483 73.1014C215.932 65.3034 212.104 58.1404 206.482 52.5183C200.86 46.8963 193.697 43.0676 185.899 41.5165C178.1 39.9653 170.018 40.7614 162.672 43.8041C155.326 46.8467 149.048 51.9993 144.631 58.6101C140.214 65.221 137.856 72.9932 137.856 80.944C137.855 86.2235 138.894 91.4514 140.914 96.3292C142.934 101.207 145.895 105.639 149.628 109.372C153.361 113.105 157.793 116.066 162.671 118.086C167.549 120.106 172.776 121.145 178.056 121.144Z" fill="#263238"/>
<path d="M178.056 133.36C167.689 133.362 157.554 130.289 148.933 124.53C140.312 118.772 133.593 110.586 129.624 101.008C125.656 91.4307 124.617 80.8914 126.638 70.7231C128.66 60.5549 133.651 51.2145 140.981 43.8832C148.312 36.5519 157.651 31.559 167.819 29.5358C177.987 27.5127 188.527 28.5503 198.105 32.5173C207.683 36.4843 215.87 43.2026 221.63 51.8225C227.39 60.4424 230.464 70.5769 230.464 80.9441C230.449 94.8397 224.923 108.162 215.098 117.989C205.273 127.815 191.952 133.343 178.056 133.36ZM178.056 29.3601C167.847 29.3585 157.866 32.3846 149.377 38.0556C140.887 43.7267 134.27 51.7879 130.363 61.2198C126.455 70.6517 125.432 81.0306 127.423 91.0439C129.415 101.057 134.331 110.255 141.55 117.474C148.769 124.693 157.967 129.609 167.98 131.601C177.993 133.592 188.372 132.569 197.804 128.662C207.236 124.754 215.297 118.137 220.968 109.647C226.639 101.158 229.666 91.1775 229.664 80.9681C229.653 67.2818 224.214 54.1588 214.538 44.4789C204.863 34.799 191.742 29.353 178.056 29.3361V29.3601ZM178.056 121.568C170.026 121.57 162.175 119.19 155.498 114.73C148.82 110.269 143.615 103.929 140.541 96.5106C137.467 89.092 136.661 80.9285 138.227 73.0523C139.793 65.1762 143.659 57.9412 149.337 52.2624C155.014 46.5836 162.249 42.716 170.124 41.1488C178 39.5816 186.164 40.3851 193.583 43.4578C201.002 46.5305 207.344 51.7343 211.805 58.4111C216.267 65.0879 218.648 72.9378 218.648 80.9681C218.629 91.7264 214.346 102.038 206.737 109.644C199.128 117.25 188.814 121.529 178.056 121.544V121.568ZM178.056 41.1761C170.184 41.1745 162.488 43.5076 155.941 47.8803C149.395 52.2529 144.292 58.4688 141.279 65.7416C138.266 73.0144 137.477 81.0175 139.012 88.7387C140.548 96.4599 144.339 103.552 149.905 109.119C155.472 114.686 162.564 118.476 170.285 120.012C178.007 121.547 186.01 120.758 193.282 117.745C200.555 114.732 206.771 109.629 211.144 103.083C215.516 96.5365 217.85 88.8405 217.848 80.9681C217.84 70.415 213.645 60.2962 206.185 52.8318C198.725 45.3673 188.609 41.1669 178.056 41.1521V41.1761Z" fill="#263238"/>
<path d="M150.112 248.664H43.832C43.7259 248.664 43.6242 248.622 43.5492 248.547C43.4741 248.472 43.432 248.37 43.432 248.264V175.416C43.432 175.31 43.4741 175.208 43.5492 175.133C43.6242 175.058 43.7259 175.016 43.832 175.016H150.112C150.218 175.016 150.32 175.058 150.395 175.133C150.47 175.208 150.512 175.31 150.512 175.416V248.264C150.512 248.37 150.47 248.472 150.395 248.547C150.32 248.622 150.218 248.664 150.112 248.664ZM44.232 247.864H149.712V175.816H44.232V247.864Z" fill="#263238"/>
<path d="M51.928 220.432H37.784C37.6779 220.432 37.5762 220.39 37.5012 220.315C37.4262 220.24 37.384 220.138 37.384 220.032V205.312C37.384 205.206 37.4262 205.104 37.5012 205.029C37.5762 204.954 37.6779 204.912 37.784 204.912H51.928C52.0335 204.914 52.134 204.957 52.2086 205.032C52.2832 205.106 52.326 205.207 52.328 205.312V220C52.3325 220.055 52.3254 220.111 52.3073 220.163C52.2892 220.215 52.2604 220.263 52.2228 220.304C52.1852 220.344 52.1396 220.377 52.0889 220.399C52.0381 220.421 51.9834 220.432 51.928 220.432ZM38.184 219.632H51.528V205.712H38.184V219.632Z" fill="#263238"/>
<path d="M150.112 332.936H43.832C43.7266 332.934 43.626 332.891 43.5514 332.817C43.4769 332.742 43.4341 332.641 43.432 332.536V259.68C43.4341 259.575 43.4769 259.474 43.5514 259.399C43.626 259.325 43.7266 259.282 43.832 259.28H150.112C150.217 259.282 150.318 259.325 150.393 259.399C150.467 259.474 150.51 259.575 150.512 259.68V332.536C150.51 332.641 150.467 332.742 150.393 332.817C150.318 332.891 150.217 332.934 150.112 332.936ZM44.232 332.136H149.712V260.08H44.232V332.136Z" fill="#263238"/>
<path d="M51.928 304.696H37.784C37.6779 304.696 37.5762 304.654 37.5012 304.579C37.4262 304.504 37.384 304.402 37.384 304.296V289.6C37.384 289.494 37.4262 289.392 37.5012 289.317C37.5762 289.242 37.6779 289.2 37.784 289.2H51.928C52.0335 289.202 52.134 289.245 52.2086 289.32C52.2832 289.394 52.326 289.495 52.328 289.6V304.32C52.3219 304.422 52.2771 304.518 52.2027 304.588C52.1284 304.658 52.0301 304.696 51.928 304.696ZM38.184 303.896H51.528V289.976H38.184V303.896Z" fill="#263238"/>
<path d="M283.304 248.664H177.032C176.926 248.664 176.824 248.622 176.749 248.547C176.674 248.472 176.632 248.37 176.632 248.264V175.416C176.632 175.31 176.674 175.208 176.749 175.133C176.824 175.058 176.926 175.016 177.032 175.016H283.304C283.41 175.016 283.512 175.058 283.587 175.133C283.662 175.208 283.704 175.31 283.704 175.416V248.264C283.704 248.37 283.662 248.472 283.587 248.547C283.512 248.622 283.41 248.664 283.304 248.664ZM177.432 247.864H282.904V175.816H177.432V247.864Z" fill="#263238"/>
<path d="M185.12 220.432H170.984C170.878 220.432 170.776 220.39 170.701 220.315C170.626 220.24 170.584 220.138 170.584 220.032V205.312C170.584 205.206 170.626 205.104 170.701 205.029C170.776 204.954 170.878 204.912 170.984 204.912H185.12C185.226 204.912 185.328 204.954 185.403 205.029C185.478 205.104 185.52 205.206 185.52 205.312V220C185.524 220.055 185.517 220.111 185.499 220.163C185.481 220.215 185.452 220.263 185.415 220.304C185.377 220.344 185.332 220.377 185.281 220.399C185.23 220.421 185.175 220.432 185.12 220.432ZM171.384 219.632H184.72V205.712H171.384V219.632Z" fill="#263238"/>
<path d="M283.304 332.936H177.032C176.927 332.934 176.826 332.891 176.752 332.817C176.677 332.742 176.634 332.641 176.632 332.536V259.68C176.634 259.575 176.677 259.474 176.752 259.399C176.826 259.325 176.927 259.282 177.032 259.28H283.304C283.41 259.28 283.512 259.322 283.587 259.397C283.662 259.472 283.704 259.574 283.704 259.68V332.536C283.704 332.642 283.662 332.744 283.587 332.819C283.512 332.894 283.41 332.936 283.304 332.936ZM177.432 332.136H282.904V260.08H177.432V332.136Z" fill="#263238"/>
<path d="M185.12 304.696H170.984C170.878 304.696 170.776 304.654 170.701 304.579C170.626 304.504 170.584 304.402 170.584 304.296V289.6C170.584 289.494 170.626 289.392 170.701 289.317C170.776 289.242 170.878 289.2 170.984 289.2H185.12C185.226 289.2 185.328 289.242 185.403 289.317C185.478 289.392 185.52 289.494 185.52 289.6V304.32C185.514 304.422 185.469 304.518 185.395 304.588C185.32 304.658 185.222 304.696 185.12 304.696ZM171.384 303.896H184.72V289.976H171.384V303.896Z" fill="#263238"/>
<path d="M393.952 335.72H7.56003C7.45459 335.718 7.35403 335.675 7.27946 335.601C7.20488 335.526 7.16208 335.425 7.16003 335.32C7.16003 335.214 7.20218 335.112 7.27719 335.037C7.35221 334.962 7.45395 334.92 7.56003 334.92H393.96C394.066 334.92 394.168 334.962 394.243 335.037C394.318 335.112 394.36 335.214 394.36 335.32C394.36 335.373 394.349 335.426 394.329 335.475C394.308 335.524 394.278 335.568 394.24 335.606C394.202 335.643 394.157 335.672 394.108 335.692C394.058 335.711 394.005 335.721 393.952 335.72Z" fill="#263238"/>
<path d="M310.592 333.304L262.416 342.008L333.264 363.056L368.784 347.872L310.592 333.304Z" fill="#A3A3A3"/>
<path d="M333.264 363.456C333.227 363.464 333.189 363.464 333.152 363.456L262.304 342.4C262.218 342.372 262.144 342.318 262.092 342.244C262.04 342.17 262.013 342.082 262.016 341.992C262.023 341.903 262.059 341.819 262.118 341.753C262.177 341.686 262.257 341.641 262.344 341.624L310.52 332.92C310.575 332.908 310.633 332.908 310.688 332.92L368.88 347.48C368.961 347.5 369.034 347.546 369.087 347.611C369.141 347.676 369.172 347.756 369.176 347.84C369.183 347.923 369.163 348.007 369.12 348.079C369.077 348.15 369.013 348.207 368.936 348.24L333.424 363.44C333.372 363.457 333.318 363.462 333.264 363.456ZM264.144 342.104L333.24 362.632L367.528 348L310.584 333.744L264.144 342.104Z" fill="#263238"/>
<path d="M312.28 335.032L269.256 342.8L332.528 361.608L364.248 348.04L312.28 335.032Z" fill="white"/>
<path d="M332.528 362.008H332.416L269.144 343.2C269.058 343.175 268.983 343.122 268.931 343.05C268.879 342.977 268.852 342.889 268.856 342.8C268.863 342.71 268.898 342.625 268.957 342.557C269.017 342.489 269.096 342.443 269.184 342.424L312.216 334.656C312.271 334.644 312.329 334.644 312.384 334.656L364.344 347.664C364.426 347.685 364.499 347.731 364.553 347.796C364.608 347.86 364.641 347.94 364.648 348.024C364.655 348.107 364.635 348.191 364.592 348.262C364.549 348.334 364.485 348.391 364.408 348.424L332.688 362.024C332.634 362.027 332.58 362.021 332.528 362.008ZM270.984 342.896L332.504 361.184L363 348.136L312.272 335.44L270.984 342.896Z" fill="#263238"/>
<path d="M355.76 349.672L337.552 356.976L346.448 359.496L365.216 351.584L355.76 349.672Z" fill="#263238"/>
<path d="M346.448 359.896H346.336L337.44 357.36C337.361 357.337 337.291 357.29 337.239 357.226C337.187 357.161 337.157 357.082 337.152 357C337.146 356.917 337.167 356.834 337.212 356.763C337.256 356.693 337.322 356.638 337.4 356.608L355.616 349.296C355.689 349.272 355.767 349.272 355.84 349.296L365.296 351.2C365.38 351.217 365.456 351.26 365.514 351.323C365.571 351.386 365.607 351.466 365.616 351.55C365.625 351.635 365.607 351.721 365.563 351.795C365.52 351.868 365.455 351.926 365.376 351.96L346.6 359.872C346.551 359.888 346.5 359.896 346.448 359.896ZM338.784 356.912L346.424 359.072L363.872 351.72L355.8 350.12L338.784 356.912Z" fill="#263238"/>
<path d="M324.296 355.84C324.19 355.858 324.081 355.833 323.993 355.771C323.905 355.709 323.846 355.614 323.828 355.508C323.81 355.402 323.835 355.293 323.897 355.205C323.959 355.117 324.054 355.058 324.16 355.04L347.848 346.472C347.948 346.438 348.057 346.444 348.152 346.489C348.248 346.534 348.322 346.613 348.36 346.712C348.396 346.812 348.391 346.922 348.346 347.018C348.301 347.114 348.22 347.188 348.12 347.224L324.432 355.792C324.39 355.816 324.344 355.833 324.296 355.84Z" fill="#263238"/>
<path d="M310.4 352.568C310.348 352.576 310.294 352.573 310.242 352.56C310.191 352.548 310.142 352.525 310.1 352.493C310.057 352.462 310.021 352.422 309.993 352.376C309.966 352.331 309.948 352.28 309.94 352.228C309.932 352.175 309.935 352.122 309.948 352.07C309.96 352.019 309.983 351.97 310.015 351.927C310.046 351.885 310.086 351.849 310.132 351.821C310.177 351.794 310.228 351.776 310.28 351.768L334.584 343.824C334.685 343.791 334.794 343.8 334.889 343.848C334.983 343.896 335.055 343.979 335.088 344.08C335.119 344.181 335.109 344.289 335.061 344.383C335.014 344.477 334.932 344.549 334.832 344.584L310.528 352.528C310.488 352.549 310.445 352.563 310.4 352.568Z" fill="#263238"/>
<path d="M295.008 348.056C294.92 348.055 294.835 348.026 294.766 347.973C294.697 347.919 294.647 347.844 294.624 347.76C294.599 347.657 294.614 347.549 294.666 347.456C294.718 347.364 294.803 347.295 294.904 347.264L322.952 339.792C323.002 339.777 323.055 339.773 323.107 339.779C323.159 339.786 323.21 339.802 323.255 339.829C323.301 339.855 323.341 339.89 323.372 339.931C323.404 339.973 323.427 340.021 323.44 340.072C323.467 340.174 323.453 340.282 323.4 340.373C323.348 340.465 323.262 340.532 323.16 340.56L295.112 348.04L295.008 348.056Z" fill="#263238"/>
<path d="M252.872 199.944C252.781 199.947 252.693 199.916 252.624 199.856C252.564 199.809 252.519 199.745 252.495 199.672C252.471 199.6 252.468 199.522 252.488 199.448C252.592 199.048 254.984 189.68 256.12 186.832C256.158 186.739 256.229 186.664 256.319 186.621C256.409 186.578 256.512 186.571 256.608 186.6C257.448 186.856 264.816 189.192 265.624 191.208C266.432 193.224 257.096 197.968 253.048 199.912C252.992 199.935 252.932 199.946 252.872 199.944ZM256.736 187.472C255.776 190.064 254.072 196.512 253.48 198.816C259.944 195.616 265.2 192.304 264.88 191.512C264.4 190.296 259.776 188.448 256.736 187.472Z" fill="#263238"/>
<path d="M284.176 249.6C284.176 249.6 300.048 278.568 300.6 279.68C301.152 280.792 328.8 327.096 328.8 327.096L330.832 330.976L336.92 324.88C338.109 323.736 339.567 322.91 341.16 322.48L337.104 316.2C337.104 316.2 328.616 294.6 323.08 281.144C317.544 267.688 314.04 262.144 314.04 261.584C314.04 261.024 307.584 240.368 307.584 240.368L284.176 249.6Z" fill="white"/>
<path d="M330.864 331.376H330.8C330.738 331.367 330.679 331.343 330.627 331.307C330.576 331.271 330.533 331.223 330.504 331.168L328.48 327.288C327.36 325.416 300.8 280.976 300.24 279.864C299.68 278.752 284 250.08 283.832 249.792C283.81 249.74 283.799 249.684 283.799 249.628C283.799 249.572 283.81 249.516 283.832 249.464C283.853 249.412 283.884 249.364 283.924 249.324C283.964 249.284 284.012 249.253 284.064 249.232L307.464 240C307.515 239.978 307.569 239.967 307.624 239.967C307.679 239.967 307.733 239.978 307.784 240C307.834 240.023 307.878 240.056 307.914 240.097C307.95 240.139 307.976 240.187 307.992 240.24C309.944 246.472 314.472 261.04 314.472 261.576C314.472 261.712 314.888 262.464 315.384 263.416C316.768 266.096 319.648 271.656 323.48 281.016C328.952 294.336 337.424 315.864 337.504 316.08L341.504 322.28C341.533 322.337 341.549 322.4 341.549 322.464C341.549 322.528 341.533 322.591 341.504 322.648C341.479 322.707 341.441 322.759 341.392 322.801C341.343 322.842 341.286 322.872 341.224 322.888C339.704 323.309 338.311 324.097 337.168 325.184L331.08 331.272C331.02 331.327 330.945 331.364 330.864 331.376ZM284.744 249.776C286.736 253.4 300.44 278.424 300.96 279.464C301.48 280.504 328.896 326.4 329.176 326.864L330.96 330.272L336.664 324.568C337.771 323.5 339.106 322.695 340.568 322.216L336.8 316.432C336.68 316.144 328.216 294.616 322.744 281.304C318.92 272.008 316.056 266.464 314.672 263.8C313.872 262.2 313.672 261.856 313.672 261.592C313.584 260.96 309.896 249.024 307.36 240.904L284.744 249.776Z" fill="#263238"/>
<path d="M307.896 242.384L289.488 260.128L284.176 249.6L307.896 242.384Z" fill="#263238"/>
<path d="M289.488 260.528H289.424C289.362 260.516 289.303 260.49 289.252 260.453C289.201 260.416 289.159 260.367 289.128 260.312L283.824 249.784C283.8 249.731 283.788 249.674 283.788 249.616C283.788 249.558 283.8 249.501 283.824 249.448C283.848 249.394 283.884 249.345 283.928 249.305C283.972 249.265 284.024 249.235 284.08 249.216L307.792 242.016C307.878 241.989 307.97 241.991 308.055 242.023C308.139 242.055 308.21 242.115 308.256 242.192C308.302 242.27 308.321 242.361 308.309 242.451C308.297 242.541 308.256 242.624 308.192 242.688L289.792 260.432C289.75 260.467 289.702 260.494 289.65 260.51C289.597 260.527 289.543 260.533 289.488 260.528ZM284.752 249.848L289.6 259.448L306.4 243.232L284.752 249.848Z" fill="#263238"/>
<path d="M339.448 320.128C339.448 320.128 337.592 318.64 334.376 320.744C331.16 322.848 328.68 329.28 329.176 330.768C329.672 332.256 333.256 335.568 335.112 336.584C336.968 337.6 344.272 338.064 347.608 337.568C350.944 337.072 357.016 336.336 358.376 336.456C359.736 336.576 361.344 337.944 361.712 336.704L362.088 335.472C362.088 335.472 366.288 338.808 367.032 338.672C367.279 338.599 367.507 338.472 367.699 338.3C367.891 338.129 368.043 337.917 368.144 337.68C368.144 337.68 369.512 338.792 370.128 338.176L370.744 337.552C370.744 337.552 371.984 336.936 372.104 336.192C372.224 335.448 372.6 328.28 371.856 326.424C371.112 324.568 367.408 324.568 367.408 324.568C367.235 324.156 366.941 323.806 366.566 323.564C366.19 323.321 365.751 323.197 365.304 323.208C363.704 323.208 350.456 323.576 347.704 323.448C346.046 323.374 344.393 323.211 342.752 322.96L339.448 320.128Z" fill="#CFD8DC"/>
<path d="M367.024 339.088C366.224 339.088 363.896 337.392 362.296 336.144L362.096 336.824C362.06 336.971 361.993 337.109 361.899 337.228C361.806 337.347 361.687 337.444 361.552 337.512C361.239 337.594 360.913 337.612 360.594 337.567C360.274 337.522 359.966 337.413 359.688 337.248C359.256 337.059 358.802 336.928 358.336 336.856C357.064 336.736 351.224 337.44 347.672 337.968C344.328 338.464 336.912 337.968 334.928 336.936C333.136 335.976 329.328 332.568 328.8 330.896C328.272 329.224 330.768 322.624 334.152 320.408C337.536 318.192 339.608 319.744 339.696 319.816L342.952 322.584C344.543 322.827 346.145 322.988 347.752 323.064C349.632 323.144 356.592 322.992 361.2 322.888C363.232 322.848 364.808 322.816 365.304 322.816C365.784 322.802 366.258 322.922 366.673 323.162C367.089 323.402 367.429 323.753 367.656 324.176C368.56 324.176 371.512 324.48 372.232 326.28C373.032 328.264 372.632 335.48 372.504 336.272C372.376 337.064 371.28 337.736 370.984 337.872L370.408 338.448C369.784 339.072 368.808 338.6 368.272 338.248C368.001 338.656 367.582 338.942 367.104 339.048L367.024 339.088ZM362.088 335.088C362.178 335.089 362.265 335.12 362.336 335.176C364.208 336.664 366.52 338.288 366.992 338.312C367.464 338.336 367.792 337.568 367.792 337.56C367.818 337.504 367.856 337.455 367.903 337.415C367.95 337.375 368.005 337.345 368.064 337.328C368.125 337.313 368.188 337.312 368.25 337.326C368.311 337.34 368.368 337.368 368.416 337.408C368.856 337.768 369.624 338.16 369.856 337.928L370.48 337.312C370.509 337.281 370.545 337.257 370.584 337.24C370.928 337.064 371.656 336.576 371.728 336.168C371.84 335.48 372.192 328.344 371.504 326.608C370.976 325.296 368.376 325.008 367.424 325.008C367.342 325.007 367.262 324.981 367.195 324.934C367.128 324.887 367.077 324.821 367.048 324.744C366.903 324.409 366.661 324.125 366.353 323.93C366.045 323.734 365.685 323.636 365.32 323.648C364.824 323.648 363.256 323.648 361.232 323.72C356.616 323.824 349.632 323.976 347.728 323.888C346.057 323.81 344.39 323.644 342.736 323.392C342.666 323.379 342.6 323.349 342.544 323.304L339.2 320.44C339.088 320.352 337.456 319.208 334.6 321.08C331.44 323.152 329.144 329.384 329.56 330.64C329.976 331.896 333.52 335.272 335.312 336.24C337.104 337.208 344.112 337.696 347.56 337.184C350.624 336.728 356.96 335.936 358.416 336.064C358.954 336.143 359.479 336.293 359.976 336.512C360.44 336.688 361.008 336.904 361.208 336.808C361.276 336.758 361.323 336.684 361.336 336.6L361.712 335.36C361.73 335.297 361.764 335.24 361.81 335.194C361.856 335.148 361.913 335.114 361.976 335.096C362.011 335.079 362.049 335.068 362.088 335.064V335.088Z" fill="#263238"/>
<path d="M332.144 332.528H332.016C331.966 332.512 331.92 332.486 331.881 332.452C331.841 332.417 331.809 332.375 331.786 332.328C331.763 332.281 331.749 332.23 331.746 332.178C331.743 332.126 331.75 332.073 331.768 332.024C333.288 327.448 340.568 324.48 340.904 324.36C340.954 324.332 341.009 324.315 341.065 324.31C341.122 324.305 341.179 324.313 341.233 324.331C341.286 324.35 341.335 324.38 341.376 324.42C341.418 324.459 341.45 324.507 341.471 324.56C341.492 324.612 341.502 324.669 341.5 324.726C341.497 324.783 341.483 324.838 341.457 324.889C341.431 324.94 341.395 324.985 341.351 325.02C341.306 325.056 341.255 325.082 341.2 325.096C341.128 325.096 333.936 328.056 332.528 332.296C332.495 332.369 332.44 332.43 332.372 332.471C332.303 332.512 332.224 332.532 332.144 332.528Z" fill="#263238"/>
<path d="M332.52 328.072H332.392C332.292 328.037 332.21 327.966 332.163 327.872C332.115 327.778 332.105 327.669 332.136 327.568C332.566 326.185 333.282 324.908 334.239 323.82C335.196 322.733 336.371 321.859 337.688 321.256C337.787 321.217 337.897 321.218 337.994 321.26C338.092 321.302 338.169 321.381 338.208 321.48C338.247 321.579 338.246 321.689 338.204 321.787C338.162 321.884 338.083 321.961 337.984 322C336.781 322.567 335.708 323.376 334.833 324.377C333.957 325.378 333.298 326.549 332.896 327.816C332.868 327.893 332.816 327.958 332.749 328.004C332.681 328.05 332.601 328.074 332.52 328.072Z" fill="#263238"/>
<path d="M362.088 335.864C362.003 335.865 361.921 335.839 361.852 335.79C361.783 335.742 361.731 335.672 361.704 335.592C361.357 334.689 360.764 333.902 359.992 333.32C358.768 332.432 354.84 332.032 353.552 332.032C352.264 332.032 345.6 330.84 345.312 330.792C345.206 330.773 345.112 330.712 345.05 330.624C344.989 330.535 344.965 330.426 344.984 330.32C345.003 330.214 345.064 330.12 345.152 330.058C345.241 329.997 345.35 329.973 345.456 329.992C347.856 330.424 352.6 331.224 353.552 331.224C354.64 331.224 358.96 331.568 360.464 332.664C361.373 333.344 362.067 334.272 362.464 335.336C362.497 335.436 362.49 335.545 362.443 335.639C362.397 335.733 362.315 335.805 362.216 335.84C362.175 335.855 362.132 335.864 362.088 335.864Z" fill="#263238"/>
<path d="M368.144 338.096C368.062 338.094 367.983 338.068 367.916 338.021C367.849 337.974 367.798 337.908 367.768 337.832L364.96 330.256L359.712 325.496C359.641 325.423 359.6 325.326 359.598 325.224C359.596 325.122 359.633 325.023 359.701 324.947C359.769 324.872 359.864 324.825 359.966 324.817C360.068 324.809 360.168 324.84 360.248 324.904L365.568 329.704C365.618 329.747 365.657 329.802 365.68 329.864L368.52 337.536C368.556 337.635 368.553 337.744 368.509 337.84C368.466 337.935 368.386 338.01 368.288 338.048C368.243 338.072 368.194 338.088 368.144 338.096Z" fill="#263238"/>
<path d="M370.744 337.968C370.652 337.968 370.562 337.936 370.491 337.878C370.419 337.82 370.37 337.739 370.352 337.648C370.352 337.648 369.728 334.544 369.12 332.36C368.512 330.176 367.04 325.616 367.024 325.568C366.991 325.462 367.002 325.347 367.053 325.249C367.105 325.151 367.194 325.077 367.3 325.044C367.406 325.011 367.521 325.022 367.619 325.074C367.717 325.125 367.791 325.214 367.824 325.32C367.824 325.368 369.32 329.936 369.936 332.144C370.552 334.352 371.168 337.464 371.176 337.496C371.186 337.548 371.187 337.601 371.177 337.652C371.167 337.704 371.147 337.753 371.118 337.797C371.089 337.841 371.051 337.878 371.008 337.908C370.964 337.937 370.915 337.958 370.864 337.968H370.744Z" fill="#263238"/>
<path d="M372.48 329.408C372.48 329.408 375.32 332.008 375.944 332.496C376.568 332.984 379.656 335.344 377.8 335.592C375.944 335.84 372.352 333.992 372.352 333.992L372.48 329.408Z" fill="#CFD8DC"/>
<path d="M377.44 336C375.432 336 372.312 334.4 372.168 334.32C372.102 334.287 372.046 334.235 372.008 334.171C371.97 334.108 371.95 334.034 371.952 333.96L372.08 329.376C372.081 329.3 372.104 329.226 372.147 329.164C372.189 329.101 372.25 329.053 372.32 329.024C372.39 328.993 372.467 328.984 372.543 328.997C372.618 329.01 372.688 329.044 372.744 329.096C372.744 329.096 375.592 331.688 376.192 332.168L376.304 332.264C378.232 333.784 378.936 334.664 378.752 335.344C378.688 335.584 378.48 335.888 377.848 335.976C377.713 335.993 377.576 336.001 377.44 336ZM372.8 333.736C373.6 334.128 376.328 335.392 377.784 335.192C377.874 335.19 377.962 335.166 378.04 335.12C378.04 335.072 377.968 334.576 375.848 332.904L375.728 332.808C375.288 332.456 373.776 331.088 372.896 330.288L372.8 333.736Z" fill="#263238"/>
<path d="M255.792 193.856L256.496 186.984C256.496 186.984 250.016 192.312 238.592 200.312C227.168 208.312 208.704 214.4 205.464 222.968C202.224 231.536 193.28 297.04 193.28 307.32C193.28 317.6 195.84 335.32 195.84 335.32H283.344C283.344 335.32 285.056 309.8 286.384 292.12C287.712 274.44 290.96 250.232 290.96 250.232L319.328 238.8C319.328 238.8 310.184 223.6 306.192 214.048C302.2 204.496 292.672 192.536 287.152 192.152C281.632 191.768 263.536 196.912 262.584 197.488C261.632 198.064 255.792 193.856 255.792 193.856Z" fill="#CFD8DC"/>
<path d="M283.336 335.712H195.84C195.744 335.711 195.652 335.676 195.58 335.613C195.508 335.55 195.461 335.463 195.448 335.368C195.448 335.192 192.88 317.512 192.88 307.32C192.88 296.416 201.952 231.136 205.088 222.824C207.256 217.104 215.8 212.584 224.848 207.808C229.514 205.473 234.04 202.866 238.4 200C249.672 192.104 256.208 186.744 256.272 186.688C256.332 186.638 256.406 186.606 256.485 186.598C256.563 186.589 256.642 186.604 256.712 186.64C256.782 186.679 256.839 186.737 256.876 186.809C256.913 186.88 256.928 186.96 256.92 187.04L256.248 193.68C258.816 195.496 261.848 197.28 262.432 197.12C263.376 196.552 281.632 191.352 287.232 191.736C292.984 192.136 302.536 204.176 306.616 213.88C310.552 223.264 319.632 238.432 319.728 238.584C319.752 238.635 319.764 238.691 319.764 238.748C319.764 238.805 319.752 238.861 319.728 238.912C319.71 238.967 319.681 239.017 319.643 239.06C319.604 239.103 319.557 239.137 319.504 239.16L291.344 250.496C291.016 253.016 288.056 275.552 286.808 292.096C285.496 309.6 283.784 335.064 283.76 335.296C283.762 335.352 283.753 335.408 283.732 335.46C283.712 335.512 283.68 335.559 283.64 335.598C283.601 335.637 283.553 335.668 283.5 335.687C283.448 335.707 283.392 335.715 283.336 335.712ZM196.192 334.912H282.968C283.184 331.712 284.76 308.4 285.984 292.056C287.304 274.536 290.528 250.384 290.56 250.144C290.568 250.073 290.596 250.006 290.639 249.949C290.683 249.893 290.741 249.85 290.808 249.824L318.744 238.576C317.272 236.096 309.424 222.752 305.824 214.176C301.824 204.736 292.448 192.888 287.12 192.52C281.792 192.152 263.744 197.232 262.792 197.8C261.84 198.368 257.824 195.8 255.592 194.184C255.535 194.142 255.49 194.086 255.46 194.022C255.431 193.957 255.418 193.887 255.424 193.816L256.032 187.896C254.008 189.496 247.984 194.248 238.856 200.64C234.484 203.533 229.942 206.162 225.256 208.512C216.352 213.224 207.936 217.664 205.88 223.112C202.752 231.384 193.72 296.448 193.72 307.32C193.68 316.672 195.832 332.392 196.192 334.912Z" fill="#263238"/>
<path d="M244.288 285.76C244.184 285.759 244.084 285.719 244.008 285.648C243.97 285.611 243.941 285.567 243.92 285.518C243.9 285.469 243.89 285.417 243.89 285.364C243.89 285.311 243.9 285.259 243.92 285.21C243.941 285.162 243.97 285.117 244.008 285.08C255.344 273.344 273.152 235 273.336 234.616C273.354 234.562 273.383 234.513 273.421 234.472C273.459 234.43 273.505 234.397 273.557 234.375C273.609 234.352 273.665 234.341 273.722 234.342C273.778 234.343 273.834 234.355 273.885 234.379C273.936 234.403 273.982 234.438 274.018 234.48C274.055 234.523 274.083 234.573 274.099 234.627C274.115 234.681 274.12 234.738 274.112 234.794C274.105 234.85 274.086 234.904 274.056 234.952C273.88 235.336 256.008 273.8 244.584 285.64C244.545 285.679 244.499 285.71 244.448 285.73C244.397 285.751 244.343 285.761 244.288 285.76Z" fill="#263238"/>
<path d="M290.96 250.6H290.912C290.807 250.588 290.711 250.535 290.645 250.453C290.579 250.37 290.549 250.265 290.56 250.16L293.44 226.104C293.454 225.999 293.509 225.904 293.593 225.84C293.677 225.775 293.783 225.747 293.888 225.76C293.94 225.766 293.99 225.782 294.035 225.808C294.08 225.833 294.12 225.867 294.152 225.908C294.184 225.949 294.208 225.996 294.221 226.046C294.235 226.096 294.239 226.149 294.232 226.2L291.352 250.248C291.34 250.344 291.294 250.433 291.222 250.498C291.15 250.563 291.057 250.599 290.96 250.6Z" fill="#263238"/>
<path d="M324 176.28C324 176.28 327.632 190.816 325.392 196.736C323.152 202.656 311.792 204.104 311.792 204.104L312.432 191.936L324 176.28Z" fill="#263238"/>
<path d="M311.816 204.504C311.762 204.503 311.708 204.491 311.659 204.469C311.609 204.447 311.564 204.416 311.527 204.376C311.49 204.337 311.461 204.29 311.442 204.239C311.423 204.189 311.414 204.134 311.416 204.08L312.056 191.912C312.059 191.834 312.087 191.758 312.136 191.696L323.696 176.048C323.74 175.986 323.802 175.938 323.873 175.91C323.943 175.881 324.021 175.874 324.096 175.888C324.17 175.904 324.238 175.941 324.293 175.993C324.348 176.045 324.388 176.111 324.408 176.184C324.56 176.784 328.048 190.912 325.792 196.88C323.536 202.848 312.336 204.44 311.864 204.496L311.816 204.504ZM312.848 192.08L312.24 203.632C314.392 203.28 323.168 201.552 325.04 196.6C326.912 191.648 324.544 180.376 323.824 177.216L312.848 192.08Z" fill="#263238"/>
<path d="M282.84 157.04C282.84 157.04 279.8 149.04 274.68 146.8C269.56 144.56 262.192 142.96 255.152 152.24C248.112 161.52 251.792 167.288 251.792 167.288L255.472 164.408C255.472 164.408 253.232 170.968 257.072 174.328C260.912 177.688 269.24 176.568 271.64 175.128C274.04 173.688 275.8 169.528 277.88 165.848C279.317 163.412 281.035 161.154 283 159.12L282.84 157.04Z" fill="#263238"/>
<path d="M264.592 176.912C261.736 176.912 258.744 176.32 256.808 174.632C253.784 171.984 254.304 167.568 254.776 165.464L252.04 167.6C251.996 167.634 251.946 167.659 251.892 167.673C251.839 167.687 251.783 167.689 251.728 167.68C251.672 167.673 251.619 167.653 251.572 167.623C251.525 167.592 251.485 167.552 251.456 167.504C251.296 167.256 247.704 161.4 254.832 152C262.144 142.36 269.752 144.208 274.832 146.4C280.048 148.68 283.08 156.536 283.208 156.872C283.216 156.909 283.216 156.947 283.208 156.984L283.368 159.064C283.372 159.121 283.364 159.178 283.345 159.232C283.326 159.286 283.295 159.335 283.256 159.376C281.316 161.38 279.619 163.606 278.2 166.008C277.752 166.808 277.312 167.608 276.888 168.408C275.288 171.408 273.792 174.24 271.816 175.424C270.592 176.224 267.672 176.912 264.592 176.912ZM255.472 164C255.555 164 255.636 164.026 255.704 164.072C255.775 164.122 255.828 164.193 255.854 164.276C255.88 164.358 255.878 164.447 255.848 164.528C255.848 164.592 253.744 170.88 257.336 174.024C260.928 177.168 269.096 176.184 271.432 174.776C273.216 173.704 274.632 170.976 276.232 168.08C276.664 167.28 277.104 166.44 277.56 165.64C278.977 163.225 280.674 160.986 282.616 158.968L282.472 157.128C282.2 156.44 279.272 149.216 274.544 147.16C269.744 145.04 262.464 143.288 255.496 152.472C249.728 160.072 251.312 165.272 251.952 166.664L255.248 164.08C255.313 164.031 255.391 164.003 255.472 164Z" fill="#263238"/>
<path d="M315.816 192.256C315.816 192.256 313.256 202.016 311.816 204.104C310.376 206.192 304.288 207.624 303.968 208.744C303.384 210.781 303.009 212.871 302.848 214.984C302.848 216.744 303.488 218.664 302.528 219.144C301.568 219.624 298.368 219.144 296.928 218.664L295.488 218.184C293.322 219.573 290.944 220.6 288.448 221.224C284.76 222.024 283.648 221.224 281.72 218.984C279.792 216.744 275.8 211.464 275.8 211.464C272.629 213.672 270.136 216.719 268.6 220.264C267.253 223.458 267.027 227.014 267.96 230.352C267.96 230.352 260.432 227.472 257.56 212.264C254.688 197.056 255.8 193.864 255.8 193.864C255.8 193.864 263.32 190.824 266.528 185.704C269.736 180.584 271.968 173.376 281.568 176.576C291.168 179.776 285.728 187.776 300.768 190.024L315.816 192.256Z" fill="white"/>
<path d="M268 230.752H267.856C267.536 230.624 260.088 227.616 257.2 212.352C254.312 197.088 255.408 193.872 255.456 193.744C255.474 193.69 255.503 193.641 255.542 193.6C255.58 193.558 255.628 193.526 255.68 193.504C255.76 193.504 263.12 190.448 266.216 185.504C266.656 184.8 267.088 184.04 267.512 183.296C270.152 178.64 273.152 173.352 281.728 176.216C285.984 177.632 287.408 180.008 288.792 182.312C290.592 185.304 292.448 188.392 300.872 189.64L315.912 191.888C315.969 191.894 316.023 191.912 316.072 191.942C316.121 191.971 316.162 192.011 316.194 192.058C316.225 192.106 316.245 192.16 316.254 192.216C316.262 192.272 316.257 192.33 316.24 192.384C316.136 192.784 313.648 202.24 312.184 204.384C311.328 205.624 309.112 206.576 307.16 207.424C306.04 207.912 304.512 208.576 304.392 208.912C303.824 210.914 303.455 212.966 303.288 215.04C303.297 215.559 303.335 216.077 303.4 216.592C303.536 217.88 303.672 219.104 302.752 219.56C301.624 220.12 298.288 219.56 296.84 219.104L295.584 218.68C293.424 220.053 291.054 221.064 288.568 221.672C284.696 222.52 283.424 221.6 281.456 219.272C279.856 217.36 276.656 213.192 275.752 212.032C272.795 214.184 270.467 217.087 269.008 220.44C267.709 223.545 267.486 226.995 268.376 230.24C268.398 230.301 268.405 230.365 268.396 230.429C268.388 230.493 268.364 230.553 268.327 230.606C268.29 230.658 268.241 230.701 268.184 230.731C268.128 230.761 268.064 230.776 268 230.776V230.752ZM256.176 194.152C256.016 194.952 255.512 199.136 257.984 212.192C260.24 224.088 265.408 228.344 267.368 229.56C266.719 226.395 267.031 223.107 268.264 220.12C269.824 216.491 272.375 213.375 275.624 211.128C275.709 211.074 275.811 211.053 275.911 211.071C276.01 211.089 276.099 211.143 276.16 211.224C276.2 211.272 280.16 216.52 282.064 218.728C283.968 220.936 284.896 221.6 288.4 220.84C290.846 220.222 293.177 219.214 295.304 217.856C295.355 217.821 295.413 217.798 295.474 217.79C295.535 217.782 295.598 217.788 295.656 217.808L297.096 218.288C298.696 218.816 301.64 219.168 302.392 218.792C302.816 218.576 302.712 217.624 302.608 216.616C302.54 216.085 302.5 215.551 302.488 215.016C302.649 212.866 303.029 210.737 303.624 208.664C303.816 208.008 304.856 207.528 306.824 206.664C308.584 205.864 310.776 204.952 311.504 203.904C312.712 202.152 314.816 194.52 315.328 192.616L300.712 190.4C291.912 189.096 289.96 185.84 288.072 182.696C286.704 180.416 285.408 178.264 281.44 176.944C273.48 174.288 270.776 179.056 268.168 183.664C267.744 184.408 267.304 185.176 266.856 185.896C263.872 190.68 257.36 193.6 256.136 194.152H256.176Z" fill="#263238"/>
<path d="M277.24 185.536C277.24 185.536 278.52 188.576 280.6 188.576H282.68C282.68 188.576 284.28 192.736 293.88 195.616C303.48 198.496 314.048 194.016 314.048 194.016C314.048 194.016 324.496 185.216 324.496 177.568C324.496 169.92 316.176 156.28 301.6 152.432C287.024 148.584 273.384 158.96 270.504 166.968C267.624 174.976 267.624 176.728 266.984 180.736C266.344 184.744 262.336 187.776 264.424 188.096C266.512 188.416 271.624 185.536 272.264 185.216C272.904 184.896 277.24 185.536 277.24 185.536Z" fill="#263238"/>
<path d="M300.856 196.976C298.459 196.995 296.071 196.666 293.768 196C285.336 193.472 282.952 189.952 282.432 188.976H280.6C278.6 188.976 277.32 186.624 276.968 185.896C275.481 185.623 273.967 185.515 272.456 185.576C272.346 185.626 272.24 185.682 272.136 185.744C270.704 186.496 266.368 188.8 264.376 188.488C264.198 188.482 264.024 188.428 263.874 188.333C263.723 188.237 263.601 188.103 263.52 187.944C263.24 187.344 263.736 186.568 264.472 185.392C265.497 183.981 266.222 182.375 266.6 180.672C266.688 180.128 266.76 179.632 266.832 179.152C267.304 176.032 267.632 173.784 270.144 166.832C273.168 158.432 287.296 148.248 301.712 152.048C316.128 155.848 324.912 169.464 324.912 177.568C324.912 185.344 314.752 193.96 314.32 194.32C314.291 194.349 314.255 194.371 314.216 194.384C309.952 196.033 305.428 196.911 300.856 196.976ZM273.112 184.728C274.514 184.779 275.911 184.916 277.296 185.136C277.364 185.147 277.428 185.174 277.483 185.216C277.537 185.258 277.581 185.313 277.608 185.376C277.608 185.376 278.816 188.176 280.6 188.176H282.68C282.761 188.176 282.841 188.2 282.908 188.246C282.975 188.291 283.027 188.356 283.056 188.432C283.056 188.472 284.76 192.432 294 195.232C303 197.936 313.008 194.008 313.84 193.672C314.592 193.024 324.104 184.712 324.104 177.568C324.104 169.72 315.504 156.512 301.512 152.824C287.52 149.136 273.824 158.976 270.896 167.104C268.416 173.984 268.088 176.2 267.624 179.264C267.552 179.752 267.48 180.248 267.392 180.792C266.988 182.602 266.227 184.313 265.152 185.824C264.752 186.456 264.144 187.424 264.248 187.616C264.248 187.616 264.296 187.672 264.496 187.696C265.64 187.872 268.088 186.984 271.76 185.032L272.104 184.856C272.429 184.75 272.771 184.707 273.112 184.728Z" fill="#263238"/>
<path d="M278.2 188.256C278.2 188.256 279.64 181.056 275 180.088C270.36 179.12 268.76 185.856 269.08 189.856C269.4 193.856 274.2 194.496 274.84 194.016" fill="white"/>
<path d="M274.128 194.552C273.286 194.528 272.456 194.338 271.688 193.992C270.852 193.659 270.127 193.097 269.595 192.371C269.064 191.646 268.746 190.785 268.68 189.888C268.424 186.688 269.296 182.536 271.432 180.64C271.918 180.199 272.504 179.882 273.139 179.718C273.775 179.553 274.441 179.546 275.08 179.696C279.08 180.496 279.08 185.704 278.592 188.336C278.581 188.388 278.561 188.436 278.532 188.48C278.502 188.524 278.464 188.561 278.421 188.59C278.377 188.619 278.328 188.639 278.276 188.649C278.224 188.659 278.171 188.659 278.12 188.648C278.017 188.625 277.927 188.563 277.869 188.475C277.811 188.387 277.789 188.28 277.808 188.176C277.808 188.112 279.12 181.352 274.92 180.48C274.4 180.361 273.859 180.372 273.344 180.512C272.829 180.651 272.357 180.915 271.968 181.28C270.04 182.984 269.248 186.976 269.472 189.864C269.526 190.56 269.761 191.229 270.154 191.806C270.547 192.383 271.084 192.847 271.712 193.152C272.585 193.666 273.604 193.871 274.608 193.736C274.649 193.704 274.696 193.68 274.746 193.666C274.797 193.653 274.85 193.65 274.901 193.657C274.953 193.665 275.002 193.683 275.047 193.71C275.091 193.737 275.13 193.773 275.16 193.816C275.224 193.901 275.251 194.008 275.236 194.113C275.221 194.218 275.165 194.312 275.08 194.376C274.787 194.527 274.456 194.589 274.128 194.552Z" fill="#263238"/>
<path d="M300.4 206.744C298.806 206.675 297.243 206.28 295.808 205.584C294.157 204.834 292.418 204.297 290.632 203.984C290.528 203.968 290.434 203.913 290.37 203.829C290.306 203.746 290.276 203.641 290.288 203.536C290.302 203.431 290.357 203.336 290.441 203.271C290.525 203.207 290.631 203.178 290.736 203.192C292.595 203.49 294.407 204.028 296.128 204.792C297.511 205.482 299.031 205.854 300.576 205.88C300.629 205.875 300.681 205.881 300.732 205.897C300.782 205.912 300.829 205.938 300.869 205.972C300.91 206.006 300.943 206.047 300.968 206.094C300.992 206.14 301.007 206.192 301.012 206.244C301.017 206.297 301.011 206.35 300.995 206.4C300.98 206.45 300.954 206.497 300.92 206.537C300.886 206.578 300.845 206.611 300.798 206.636C300.752 206.66 300.701 206.675 300.648 206.68L300.4 206.744Z" fill="#263238"/>
<path d="M295.2 210.64C294.129 210.652 293.07 210.422 292.1 209.968C291.131 209.513 290.276 208.846 289.6 208.016C289.569 207.973 289.547 207.925 289.534 207.874C289.522 207.823 289.52 207.77 289.528 207.718C289.536 207.666 289.555 207.616 289.582 207.571C289.609 207.526 289.645 207.487 289.688 207.456C289.731 207.425 289.779 207.403 289.83 207.39C289.881 207.378 289.934 207.376 289.986 207.384C290.038 207.392 290.088 207.411 290.133 207.438C290.178 207.465 290.217 207.501 290.248 207.544C290.951 208.391 291.861 209.042 292.89 209.434C293.919 209.827 295.031 209.947 296.12 209.784C296.225 209.775 296.331 209.806 296.414 209.871C296.497 209.937 296.552 210.031 296.568 210.136C296.579 210.242 296.549 210.348 296.483 210.432C296.417 210.515 296.322 210.57 296.216 210.584C295.832 210.616 295.504 210.64 295.2 210.64Z" fill="#263238"/>
<path d="M275.8 211.464C275.8 211.464 273.88 206.664 273.72 203.944C273.56 201.224 273.56 198.496 273.56 198.496C273.56 198.496 271 203.784 270.68 207.944C270.475 210.385 270.802 212.842 271.64 215.144L275.8 211.464Z" fill="#263238"/>
<path d="M271.64 215.544H271.552C271.49 215.529 271.431 215.5 271.383 215.458C271.334 215.416 271.296 215.364 271.272 215.304C270.405 212.945 270.066 210.424 270.28 207.92C270.6 203.728 273.096 198.552 273.2 198.32C273.238 198.238 273.304 198.171 273.385 198.132C273.467 198.093 273.56 198.083 273.648 198.104C273.736 198.122 273.815 198.171 273.872 198.241C273.929 198.311 273.96 198.398 273.96 198.488C273.96 198.488 273.96 201.232 274.12 203.912C274.28 206.592 276.152 211.256 276.168 211.304C276.2 211.38 276.207 211.464 276.189 211.545C276.17 211.625 276.126 211.698 276.064 211.752L271.904 215.432C271.87 215.467 271.829 215.496 271.783 215.515C271.738 215.534 271.689 215.544 271.64 215.544ZM273.184 200.344C272.12 202.771 271.412 205.339 271.08 207.968C270.913 210.155 271.163 212.354 271.816 214.448L275.328 211.344C274.92 210.288 273.464 206.376 273.32 203.96C273.24 202.664 273.208 201.36 273.184 200.352V200.344Z" fill="#263238"/>
<path d="M272.752 303.104L272.64 304.8L275.552 309.496L273.84 305.608L274.08 304.92L272.752 303.104Z" fill="#263238"/>
<path d="M275.56 309.896C275.491 309.897 275.423 309.88 275.362 309.846C275.302 309.813 275.251 309.764 275.216 309.704L272.304 305.016C272.26 304.944 272.237 304.861 272.24 304.776L272.352 303.08C272.358 302.999 272.389 302.921 272.44 302.858C272.492 302.795 272.561 302.749 272.64 302.726C272.718 302.704 272.801 302.705 272.879 302.731C272.956 302.758 273.023 302.807 273.072 302.872L274.4 304.68C274.44 304.732 274.466 304.792 274.476 304.857C274.485 304.921 274.479 304.987 274.456 305.048L274.272 305.592L275.92 309.336C275.962 309.428 275.967 309.532 275.935 309.627C275.902 309.723 275.834 309.802 275.744 309.848C275.687 309.878 275.624 309.894 275.56 309.896ZM273.048 304.704L273.488 305.4L273.632 304.984L273.08 304.232L273.048 304.704Z" fill="#263238"/>
<path d="M273.925 301.541L272.647 302.333L286.221 324.208L287.499 323.415L273.925 301.541Z" fill="white"/>
<path d="M286.232 324.6H286.136C286.034 324.574 285.946 324.511 285.888 324.424L272.288 302.544C272.26 302.499 272.242 302.449 272.234 302.397C272.225 302.345 272.227 302.291 272.24 302.24C272.252 302.188 272.274 302.139 272.306 302.097C272.338 302.054 272.378 302.018 272.424 301.992L273.696 301.192C273.787 301.138 273.895 301.121 273.998 301.145C274.101 301.168 274.19 301.231 274.248 301.32L287.848 323.2C287.902 323.291 287.919 323.399 287.895 323.502C287.872 323.605 287.809 323.695 287.72 323.752L286.44 324.552C286.377 324.587 286.304 324.604 286.232 324.6ZM273.208 302.456L286.4 323.648L287 323.28L273.84 302.088L273.208 302.456Z" fill="#263238"/>
<path d="M276.416 304.472C276.192 304.064 275.952 303.672 275.696 303.232C273.912 300.36 271.952 298.344 271.32 298.736C270.688 299.128 271.616 301.776 273.4 304.656C273.664 305.072 273.928 305.456 274.2 305.848L276.416 304.472Z" fill="#263238"/>
<path d="M274.192 306.248C274.128 306.248 274.065 306.232 274.008 306.203C273.951 306.174 273.902 306.132 273.864 306.08C273.6 305.696 273.328 305.28 273.064 304.864C271.784 302.808 269.936 299.128 271.104 298.4C272.568 297.488 275.904 302.792 276.032 303.024C276.296 303.448 276.536 303.872 276.768 304.28C276.818 304.371 276.831 304.477 276.804 304.577C276.777 304.677 276.713 304.763 276.624 304.816L274.4 306.192C274.336 306.228 274.265 306.247 274.192 306.248ZM271.52 299.088C271.36 299.384 271.912 301.488 273.76 304.44C273.944 304.744 274.136 305.032 274.32 305.312L275.92 304.336C275.752 304.04 275.584 303.744 275.392 303.44C273.536 300.512 271.936 299.088 271.52 299.088Z" fill="#263238"/>
<path d="M227.824 281.016L229.096 292.216C229.096 292.216 239.2 303.2 247.888 310.68C256.576 318.16 269 324.344 269.992 325.016C269.992 325.016 281.384 319.848 282.624 319.704C283.864 319.56 297.16 325.2 297.16 325.2C297.16 325.2 297.84 327.912 297.368 329.12L296.888 330.336C296.888 330.336 294.656 333.72 294.2 334.52C293.744 335.32 293.704 336.12 293.024 337.336C292.344 338.552 291.192 340.944 291.192 340.944C291.192 340.944 290.504 342.144 286.992 342.376C283.48 342.608 279.96 343.032 275.664 342.608C271.368 342.184 262.344 337.376 260.112 336.848C257.88 336.32 244.544 331.296 231.968 323.848C219.392 316.4 209.832 310.128 208.088 308C206.344 305.872 206.2 296.992 205.744 293.88C205.288 290.768 204.72 281.88 204.72 281.88L227.824 281.016Z" fill="white"/>
<path d="M279.44 343.2C278.166 343.201 276.892 343.137 275.624 343.008C272.8 342.728 268.16 340.68 264.424 339.008C262.988 338.32 261.51 337.722 260 337.216C257.504 336.624 244.256 331.576 231.744 324.168C218.44 316.28 209.472 310.312 207.744 308.208C206.392 306.528 205.976 301.416 205.64 297.312C205.528 295.912 205.432 294.704 205.312 293.888C204.864 290.8 204.312 282.224 204.288 281.888C204.284 281.78 204.321 281.674 204.392 281.592C204.427 281.553 204.47 281.521 204.519 281.499C204.567 281.477 204.619 281.465 204.672 281.464L227.776 280.616C227.877 280.611 227.976 280.645 228.053 280.71C228.13 280.776 228.18 280.868 228.192 280.968L229.48 292C230.496 293.096 240.024 303.368 248.152 310.352C255.248 316.456 264.992 321.776 268.656 323.784L270.024 324.536C271.848 323.736 281.36 319.424 282.576 319.28C283.792 319.136 295.08 323.856 297.312 324.808C297.37 324.831 297.422 324.867 297.462 324.915C297.503 324.962 297.531 325.019 297.544 325.08C297.624 325.368 298.248 327.952 297.736 329.248L297.264 330.456C297.254 330.482 297.24 330.506 297.224 330.528C297.224 330.528 294.992 333.912 294.552 334.688C294.376 335.026 294.232 335.38 294.12 335.744C293.938 336.36 293.686 336.954 293.368 337.512C292.704 338.688 291.56 341.072 291.552 341.096C291.456 341.264 290.648 342.512 287.024 342.752L285.112 342.888C283.296 343.048 281.44 343.2 279.44 343.2ZM205.152 282.256C205.264 284.032 205.744 291.128 206.136 293.808C206.256 294.608 206.36 295.864 206.472 297.28C206.776 301.064 207.2 306.248 208.4 307.736C210 309.744 219.136 315.792 232.168 323.512C244.408 330.76 257.816 335.904 260.168 336.472C261.727 336.982 263.25 337.594 264.728 338.304C268.208 339.84 272.976 341.944 275.672 342.216C278.786 342.468 281.916 342.436 285.024 342.12L286.936 341.984C290.136 341.776 290.808 340.76 290.816 340.744C290.824 340.728 291.968 338.344 292.648 337.144C292.931 336.635 293.161 336.099 293.336 335.544C293.458 335.131 293.621 334.732 293.824 334.352C294.256 333.552 296.224 330.56 296.504 330.184L296.96 329.008C297.288 328.208 296.96 326.368 296.784 325.52C290.544 322.88 283.576 320.136 282.664 320.136C281.8 320.232 274.712 323.336 270.16 325.408C270.1 325.441 270.032 325.458 269.964 325.458C269.895 325.458 269.828 325.441 269.768 325.408C269.608 325.304 269.048 324.992 268.272 324.568C264.584 322.56 254.792 317.2 247.632 311.048C239.04 303.664 228.904 292.648 228.8 292.528C228.742 292.467 228.706 292.388 228.696 292.304L227.472 281.488L205.152 282.256Z" fill="#263238"/>
<path d="M228.68 288.4L205.744 293.856L204.352 288.072L228.68 288.4Z" fill="#263238"/>
<path d="M205.744 294.256C205.654 294.257 205.566 294.227 205.495 294.172C205.424 294.117 205.374 294.04 205.352 293.952L204 288.16C203.986 288.102 203.985 288.042 203.997 287.984C204.01 287.926 204.035 287.871 204.072 287.824C204.112 287.778 204.161 287.74 204.216 287.714C204.271 287.688 204.331 287.673 204.392 287.672L228.72 288C228.817 288.001 228.91 288.038 228.982 288.102C229.054 288.167 229.1 288.256 229.112 288.352C229.122 288.451 229.097 288.55 229.039 288.631C228.982 288.712 228.897 288.769 228.8 288.792L205.864 294.248L205.744 294.256ZM204.864 288.48L206.04 293.376L225.456 288.752L204.864 288.48Z" fill="#263238"/>
<path d="M208.704 221.544C208.704 221.544 203.336 229.704 201.76 244.032C200.184 258.36 197.432 287.448 197.432 287.448L213.432 289.216C214.609 289.346 215.794 289.375 216.976 289.304L231.312 288.4L234.616 252.752C234.616 252.752 236.928 251.84 237.688 245.296C238.448 238.752 234.448 228.448 234.448 228.448" fill="#CFD8DC"/>
<path d="M215.728 289.744C214.958 289.741 214.189 289.699 213.424 289.616L197.424 287.848C197.372 287.843 197.322 287.828 197.277 287.804C197.231 287.779 197.191 287.746 197.158 287.706C197.125 287.665 197.101 287.619 197.086 287.57C197.071 287.52 197.067 287.468 197.072 287.416C197.072 287.12 199.848 258.152 201.408 243.984C202.968 229.816 208.352 221.4 208.408 221.32C208.467 221.233 208.558 221.172 208.661 221.151C208.764 221.13 208.872 221.15 208.96 221.208C209.005 221.236 209.044 221.272 209.074 221.315C209.105 221.358 209.126 221.407 209.137 221.459C209.149 221.51 209.149 221.563 209.14 221.615C209.13 221.667 209.109 221.716 209.08 221.76C209.024 221.84 203.744 230.016 202.2 244.072C200.744 257.336 198.24 283.576 197.904 287.096L213.512 288.8C214.667 288.93 215.832 288.959 216.992 288.888L230.984 288.008L234.256 252.696C234.265 252.622 234.293 252.552 234.338 252.493C234.383 252.434 234.443 252.388 234.512 252.36C234.512 252.36 236.624 251.376 237.328 245.232C238.064 238.832 234.128 228.68 234.128 228.576C234.099 228.48 234.107 228.376 234.151 228.285C234.195 228.194 234.272 228.123 234.366 228.087C234.461 228.05 234.565 228.051 234.659 228.088C234.753 228.126 234.829 228.197 234.872 228.288C235.032 228.712 238.872 238.752 238.128 245.328C237.488 250.928 235.728 252.528 235.048 252.984L231.76 288.424C231.751 288.519 231.708 288.608 231.639 288.674C231.57 288.74 231.479 288.779 231.384 288.784L217.048 289.68C216.608 289.728 216.168 289.744 215.728 289.744Z" fill="#263238"/>
<path d="M234.216 249.832C234.115 249.832 234.018 249.795 233.944 249.727C233.87 249.658 233.824 249.565 233.816 249.464C233.816 249.384 233.192 241.464 230.992 237.752C230.965 237.707 230.947 237.657 230.94 237.605C230.932 237.553 230.935 237.5 230.949 237.45C230.962 237.399 230.986 237.351 231.018 237.31C231.05 237.268 231.09 237.234 231.136 237.208C231.18 237.18 231.23 237.16 231.282 237.152C231.333 237.143 231.386 237.145 231.437 237.158C231.488 237.171 231.536 237.194 231.578 237.226C231.62 237.258 231.654 237.298 231.68 237.344C233.976 241.208 234.584 249.072 234.616 249.408C234.623 249.513 234.588 249.616 234.519 249.696C234.45 249.775 234.353 249.824 234.248 249.832H234.216Z" fill="#263238"/>
<path d="M297.368 329.12C297.84 327.912 297.16 325.2 297.16 325.2C297.16 325.2 283.864 319.56 282.624 319.704C281.384 319.848 269.992 325.016 269.992 325.016C269.624 324.768 267.688 323.76 264.96 322.216C261.668 326.348 259.66 331.355 259.184 336.616C259.584 336.744 259.896 336.84 260.112 336.888C262.344 337.416 271.36 342.216 275.664 342.648C279.968 343.08 283.48 342.648 286.992 342.416C290.504 342.184 291.192 340.984 291.192 340.984C291.192 340.984 292.344 338.584 293.024 337.376C293.704 336.168 293.744 335.36 294.2 334.56C294.656 333.76 296.888 330.376 296.888 330.376L297.368 329.12Z" fill="#CFD8DC"/>
<path d="M279.44 343.2C278.166 343.201 276.892 343.137 275.624 343.008C272.8 342.728 268.16 340.68 264.424 339.008C262.988 338.32 261.51 337.722 260 337.216C259.784 337.16 259.456 337.072 259.04 336.936C258.954 336.908 258.881 336.851 258.832 336.775C258.782 336.7 258.76 336.61 258.768 336.52C259.266 331.195 261.303 326.13 264.632 321.944C264.691 321.868 264.775 321.816 264.869 321.797C264.963 321.778 265.06 321.793 265.144 321.84C266.56 322.64 267.76 323.304 268.64 323.784L270.008 324.536C271.832 323.736 281.344 319.424 282.56 319.28C283.776 319.136 295.064 323.856 297.296 324.808C297.354 324.831 297.406 324.867 297.446 324.915C297.487 324.962 297.515 325.019 297.528 325.08C297.608 325.368 298.232 327.952 297.72 329.248L297.248 330.456C297.238 330.482 297.224 330.506 297.208 330.528C297.208 330.528 294.976 333.912 294.536 334.688C294.361 335.026 294.216 335.38 294.104 335.744C293.922 336.36 293.67 336.954 293.352 337.512C292.688 338.68 291.544 341.072 291.536 341.096C291.44 341.264 290.632 342.512 287.008 342.752L285.096 342.888C283.296 343.048 281.44 343.2 279.44 343.2ZM259.608 336.304L260.2 336.472C261.759 336.982 263.282 337.594 264.76 338.304C268.24 339.84 273.008 341.944 275.704 342.216C278.818 342.468 281.948 342.436 285.056 342.12L286.968 341.984C290.168 341.776 290.84 340.76 290.848 340.744C290.856 340.728 292 338.344 292.68 337.144C292.963 336.635 293.193 336.099 293.368 335.544C293.49 335.131 293.653 334.732 293.856 334.352C294.288 333.552 296.256 330.56 296.536 330.184L296.992 329.008C297.32 328.208 296.992 326.368 296.816 325.52C290.576 322.88 283.608 320.136 282.696 320.136C281.832 320.232 274.744 323.336 270.192 325.408C270.132 325.441 270.065 325.458 269.996 325.458C269.928 325.458 269.86 325.441 269.8 325.408C269.64 325.304 269.08 324.992 268.304 324.568C267.528 324.144 266.384 323.52 265.104 322.792C262.062 326.7 260.159 331.374 259.608 336.296V336.304Z" fill="#263238"/>
<path d="M295.504 331.344C295.454 331.355 295.402 331.355 295.352 331.344L284.84 327.032C284.791 327.013 284.747 326.984 284.709 326.947C284.671 326.91 284.641 326.867 284.62 326.818C284.599 326.77 284.588 326.718 284.588 326.666C284.587 326.613 284.596 326.561 284.616 326.512C284.635 326.463 284.664 326.419 284.701 326.381C284.738 326.344 284.782 326.314 284.83 326.294C284.879 326.274 284.931 326.264 284.983 326.264C285.036 326.264 285.088 326.275 285.136 326.296L295.656 330.6C295.705 330.62 295.75 330.65 295.787 330.687C295.825 330.725 295.855 330.77 295.875 330.819C295.895 330.868 295.905 330.921 295.904 330.974C295.904 331.027 295.893 331.079 295.872 331.128C295.838 331.196 295.785 331.252 295.72 331.29C295.655 331.329 295.58 331.347 295.504 331.344Z" fill="#263238"/>
<path d="M294.2 334.92H294.12L283.72 332.88C283.667 332.87 283.618 332.849 283.573 332.819C283.529 332.789 283.49 332.751 283.461 332.706C283.431 332.662 283.41 332.612 283.4 332.559C283.389 332.507 283.39 332.453 283.4 332.4C283.411 332.348 283.431 332.298 283.461 332.253C283.491 332.209 283.529 332.17 283.574 332.141C283.618 332.111 283.668 332.09 283.721 332.08C283.773 332.07 283.827 332.07 283.88 332.08L294.28 334.12C294.332 334.129 294.381 334.148 294.425 334.176C294.469 334.204 294.507 334.241 294.536 334.285C294.565 334.328 294.585 334.377 294.595 334.429C294.605 334.48 294.604 334.533 294.592 334.584C294.577 334.677 294.529 334.762 294.457 334.824C294.386 334.885 294.295 334.92 294.2 334.92Z" fill="#263238"/>
<path d="M283.496 339.088C283.393 339.088 283.293 339.048 283.219 338.977C283.144 338.905 283.1 338.807 283.096 338.704C283.094 338.597 283.134 338.494 283.207 338.416C283.28 338.338 283.381 338.292 283.488 338.288L291.88 338.088C291.983 338.088 292.083 338.128 292.157 338.2C292.232 338.271 292.276 338.369 292.28 338.472C292.282 338.525 292.274 338.578 292.255 338.628C292.236 338.678 292.208 338.724 292.171 338.763C292.135 338.801 292.091 338.832 292.042 338.854C291.994 338.875 291.941 338.887 291.888 338.888L283.496 339.088Z" fill="#263238"/>
<path d="M263.896 335.92H263.84C263.736 335.904 263.643 335.848 263.58 335.765C263.518 335.681 263.49 335.576 263.504 335.472C264.208 330.288 268.344 325.616 268.52 325.416C268.595 325.343 268.695 325.302 268.8 325.302C268.905 325.302 269.005 325.343 269.08 325.416C269.117 325.453 269.147 325.498 269.168 325.546C269.188 325.595 269.198 325.647 269.198 325.7C269.198 325.753 269.188 325.805 269.168 325.854C269.147 325.903 269.117 325.947 269.08 325.984C269.04 326.032 264.936 330.672 264.28 335.584C264.264 335.675 264.217 335.758 264.147 335.82C264.077 335.881 263.989 335.916 263.896 335.92Z" fill="#263238"/>
<path d="M261.6 332.896H261.528C261.424 332.877 261.332 332.817 261.272 332.73C261.212 332.643 261.189 332.536 261.208 332.432C261.832 328.936 265.832 325.232 266.008 325.04C266.084 324.966 266.186 324.925 266.292 324.925C266.398 324.925 266.5 324.966 266.576 325.04C266.613 325.077 266.643 325.122 266.664 325.17C266.684 325.219 266.694 325.271 266.694 325.324C266.694 325.377 266.684 325.429 266.664 325.478C266.643 325.527 266.613 325.571 266.576 325.608C266.536 325.608 262.576 329.32 262.024 332.552C262.012 332.653 261.961 332.746 261.882 332.81C261.803 332.874 261.702 332.905 261.6 332.896Z" fill="#263238"/>
</svg>
